<?xml version="1.0" encoding="iso-8859-1"?>
<!-- Generator: Adobe Illustrator 19.0.0, SVG Export Plug-In . SVG Version: 6.00 Build 0)  -->
<svg version="1.1" id="Layer_1" xmlns="http://www.w3.org/2000/svg" xmlns:xlink="http://www.w3.org/1999/xlink" x="0px" y="0px"
	 viewBox="0 0 504.131 504.131" style="enable-background:new 0 0 504.131 504.131;" xml:space="preserve">
<path style="fill:#1D8893;" d="M223.605,165.415h-35.107h-47.6l47.6,71.877v210.385c0,31.169,25.277,56.446,56.446,56.446h197.585
	c31.185,0,56.446-25.277,56.446-56.446V165.415H223.605z"/>
<path style="fill:#8DC6D3;" d="M343.201,464.093L230.277,285.507V26.325C230.277,0.496,209.34,0,183.52,0h-14.643
	c-25.813,0-46.757,0.488-46.757,26.325V285.46l0.032,0.008L9.203,464.093C4.115,472.127,3.8,482.296,8.4,490.622
	c4.584,8.334,13.336,13.501,22.843,13.501h289.91c9.507,0,18.259-5.167,22.843-13.501
	C348.604,482.296,348.297,472.127,343.201,464.093z"/>
<path style="fill:#ABD3DD;" d="M230.277,318.047V26.325C230.277,0.496,209.34,0,183.52,0h-14.643
	c-25.813,0-46.757,0.488-46.757,26.325V285.46L230.277,318.047z"/>
<path style="fill:#8DC6D3;" d="M230.277,318.047V26.325C230.277,0.496,209.34,0,183.52,0h-14.643v318.047H230.277z"/>
<path style="fill:#4BBAC6;" d="M344.004,490.622c4.6-8.334,4.293-18.495-0.803-26.529L230.277,285.507V165.415h-6.68h-35.1h-47.6
	l47.6,71.877v210.385c0,31.169,25.277,56.446,56.446,56.446h76.217C330.668,504.123,339.42,498.956,344.004,490.622z"/>
<polygon style="fill:#39ACB2;" points="168.876,165.415 140.898,165.415 168.876,207.659 "/>
<path style="fill:#8DC6D3;" d="M225.315,127.772l4.97-4.97V26.325C230.285,0.496,209.348,0,183.528,0h-14.643
	c-25.23,0-45.663,0.63-46.584,24.765L225.315,127.772z"/>
<path style="fill:#C4E3E8;" d="M249.276,11.681c0,6.443-5.215,11.697-11.674,11.697H114.801c-6.459,0-11.674-5.254-11.674-11.697
	l0,0C103.128,5.238,108.342,0,114.801,0h122.801C244.062,0,249.276,5.238,249.276,11.681L249.276,11.681z"/>
<path style="fill:#ABD3DD;" d="M249.276,11.681L249.276,11.681c0,6.443-5.215,11.697-11.674,11.697H114.801
	c-6.459,0-11.674-5.254-11.674-11.697l0,0"/>
<g>
	<path style="fill:#C4E3E8;" d="M181.078,74.319c0,1.623-1.323,2.914-2.922,2.914h-38.967c-1.615,0-2.938-1.292-2.938-2.914l0,0
		c0-1.615,1.323-2.93,2.938-2.93h38.967C179.754,71.381,181.078,72.696,181.078,74.319L181.078,74.319z"/>
	<path style="fill:#C4E3E8;" d="M157.699,96.713c0,1.615-1.323,2.93-2.922,2.93h-15.588c-1.615,0-2.938-1.315-2.938-2.93l0,0
		c0-1.623,1.323-2.922,2.938-2.922h15.588C156.376,93.791,157.699,95.09,157.699,96.713L157.699,96.713z"/>
	<path style="fill:#C4E3E8;" d="M181.078,118.162c0,1.615-1.323,2.93-2.922,2.93h-38.967c-1.615,0-2.938-1.315-2.938-2.93l0,0
		c0-1.623,1.323-2.922,2.938-2.922h38.967C179.754,115.239,181.078,116.539,181.078,118.162L181.078,118.162z"/>
	<path style="fill:#C4E3E8;" d="M157.699,140.572c0,1.631-1.323,2.93-2.922,2.93h-15.588c-1.615,0-2.938-1.3-2.938-2.93l0,0
		c0-1.615,1.323-2.922,2.938-2.922h15.588C156.376,137.649,157.699,138.957,157.699,140.572L157.699,140.572z"/>
	<path style="fill:#C4E3E8;" d="M181.078,162.013c0,1.615-1.323,2.93-2.922,2.93h-38.967c-1.615,0-2.938-1.315-2.938-2.93l0,0
		c0-1.615,1.323-2.914,2.938-2.914h38.967C179.754,159.098,181.078,160.398,181.078,162.013L181.078,162.013z"/>
	<path style="fill:#C4E3E8;" d="M157.699,184.422c0,1.623-1.323,2.922-2.922,2.922h-15.588c-1.615,0-2.938-1.3-2.938-2.922l0,0
		c0-1.623,1.323-2.914,2.938-2.914h15.588C156.376,181.508,157.699,182.8,157.699,184.422L157.699,184.422z"/>
	<path style="fill:#C4E3E8;" d="M181.078,205.871c0,1.623-1.323,2.907-2.922,2.907h-38.967c-1.615,0-2.938-1.284-2.938-2.907l0,0
		c0-1.615,1.323-2.93,2.938-2.93h38.967C179.754,202.941,181.078,204.256,181.078,205.871L181.078,205.871z"/>
	<path style="fill:#C4E3E8;" d="M157.699,228.265c0,1.623-1.323,2.938-2.922,2.938h-15.588c-1.615,0-2.938-1.315-2.938-2.938l0,0
		c0-1.615,1.323-2.93,2.938-2.93h15.588C156.376,225.327,157.699,226.643,157.699,228.265L157.699,228.265z"/>
	<path style="fill:#C4E3E8;" d="M181.078,249.706c0,1.623-1.323,2.938-2.922,2.938h-38.967c-1.615,0-2.938-1.315-2.938-2.938l0,0
		c0-1.615,1.323-2.93,2.938-2.93h38.967C179.754,246.776,181.078,248.092,181.078,249.706L181.078,249.706z"/>
	<path style="fill:#C4E3E8;" d="M157.699,272.108c0,1.631-1.323,2.938-2.922,2.938h-15.588c-1.615,0-2.938-1.308-2.938-2.938l0,0
		c0-1.607,1.323-2.907,2.938-2.907h15.588C156.376,269.202,157.699,270.501,157.699,272.108L157.699,272.108z"/>
</g>
<path style="fill:#39ACB2;" d="M343.201,464.093L230.277,285.507v32.54h-41.779v129.631c0,31.169,25.277,56.446,56.446,56.446
	h76.217c9.507,0,18.259-5.167,22.843-13.501C348.604,482.296,348.297,472.127,343.201,464.093z"/>
<path style="fill:#075DA3;" d="M9.203,464.093C4.115,472.127,3.8,482.296,8.4,490.622c4.584,8.334,13.336,13.501,22.843,13.501
	h289.91c9.507,0,18.259-5.167,22.843-13.501c4.6-8.334,4.293-18.495-0.803-26.529l-49.695-78.604H58.915L9.203,464.093z"/>
<path style="fill:#004884;" d="M31.251,504.123h289.91c9.507,0,18.259-5.167,22.843-13.501c4.6-8.334,4.293-18.495-0.803-26.529
	l-49.695-78.604"/>
<path style="fill:#023E66;" d="M343.201,464.093l-49.711-78.604H188.498v62.196c0,31.169,25.277,56.446,56.446,56.446h76.217
	c9.507,0,18.259-5.167,22.843-13.501C348.604,482.296,348.297,472.127,343.201,464.093z"/>
<path style="fill:#012638;" d="M343.201,464.093l-49.711-78.604l-104.999,47.49v14.69c0,31.169,25.277,56.446,56.446,56.446h76.217
	c9.507,0,18.259-5.167,22.843-13.501C348.604,482.296,348.297,472.127,343.201,464.093z"/>
<polygon style="fill:#078EEA;" points="293.513,385.481 58.915,385.481 48.107,402.558 304.312,402.558 "/>
<polygon style="fill:#075DA3;" points="304.297,402.558 293.497,385.481 188.498,385.481 188.498,402.558 "/>
<polygon style="fill:#C4E3E8;" points="79.001,376.793 127.452,300.386 135.526,311.572 "/>
<g>
	<path style="fill:#39ACB2;" d="M427.232,207.951c0,3.111-2.536,5.585-5.6,5.585h-74.705c-3.111,0-5.632-2.473-5.632-5.585l0,0
		c0-3.104,2.521-5.616,5.632-5.616h74.705C424.695,202.342,427.232,204.855,427.232,207.951L427.232,207.951z"/>
	<path style="fill:#39ACB2;" d="M382.404,250.896c0,3.104-2.536,5.624-5.6,5.624h-29.877c-3.111,0-5.632-2.521-5.632-5.624l0,0
		c0-3.111,2.521-5.6,5.632-5.6h29.877C379.868,245.295,382.404,247.784,382.404,250.896L382.404,250.896z"/>
	<path style="fill:#39ACB2;" d="M427.232,292.005c0,3.104-2.536,5.616-5.6,5.616h-74.705c-3.111,0-5.632-2.513-5.632-5.616l0,0
		c0-3.119,2.521-5.608,5.632-5.608h74.705C424.695,286.397,427.232,288.894,427.232,292.005L427.232,292.005z"/>
	<path style="fill:#39ACB2;" d="M382.404,334.958c0,3.127-2.536,5.624-5.6,5.624h-29.877c-3.111,0-5.632-2.489-5.632-5.624l0,0
		c0-3.096,2.521-5.6,5.632-5.6h29.877C379.868,329.358,382.404,331.871,382.404,334.958L382.404,334.958z"/>
	<path style="fill:#39ACB2;" d="M427.232,376.076c0,3.096-2.536,5.616-5.6,5.616h-74.705c-3.111,0-5.632-2.521-5.632-5.616l0,0
		c0-3.104,2.521-5.593,5.632-5.593h74.705C424.695,370.483,427.232,372.98,427.232,376.076L427.232,376.076z"/>
	<path style="fill:#39ACB2;" d="M382.404,419.029c0,3.119-2.536,5.608-5.6,5.608h-29.877c-3.111,0-5.632-2.489-5.632-5.608l0,0
		c0-3.111,2.521-5.585,5.632-5.585h29.877C379.868,413.444,382.404,415.925,382.404,419.029L382.404,419.029z"/>
</g>
<g>
</g>
<g>
</g>
<g>
</g>
<g>
</g>
<g>
</g>
<g>
</g>
<g>
</g>
<g>
</g>
<g>
</g>
<g>
</g>
<g>
</g>
<g>
</g>
<g>
</g>
<g>
</g>
<g>
</g>
</svg>
