<?xml version="1.0" encoding="iso-8859-1"?>
<!-- Generator: Adobe Illustrator 19.0.0, SVG Export Plug-In . SVG Version: 6.00 Build 0)  -->
<svg version="1.1" id="Layer_1" xmlns="http://www.w3.org/2000/svg" xmlns:xlink="http://www.w3.org/1999/xlink" x="0px" y="0px"
	 viewBox="0 0 512 512" style="enable-background:new 0 0 512 512;" xml:space="preserve">
<path style="fill:#B1D7C5;" d="M89.277,8.605h333.445l-32.568,428.851H121.842L89.277,8.605L89.277,8.605z"/>
<path style="fill:#97BAA8;" d="M121.842,432.992h268.313v70.403H121.842V432.992L121.842,432.992z"/>
<path style="fill:#CAEEC5;" d="M411.411,157.544l-21.257,279.911H121.842L99.022,136.944h0.003
	c37.981-29.491,112.868-25.61,157.652,0.394c22.399,13.002,52.721,20.101,81.992,20.208h72.742V157.544z"/>
<path d="M429.033,2.756C427.405,0.999,425.118,0,422.723,0H89.277c-2.395,0-4.682,0.999-6.311,2.756s-2.45,4.112-2.27,6.501
	l9.745,128.338l0,0l22.795,300.187v65.613c0,4.752,3.853,8.605,8.605,8.605h268.313c4.752,0,8.605-3.853,8.605-8.605v-65.613
	L431.303,9.257C431.485,6.868,430.662,4.511,429.033,2.756z M413.44,17.21l-10.608,139.678l-0.001,0.005l-20.653,271.957h-252.36
	l-21.85-287.758c36.865-24.786,105.373-18.968,144.39,3.687c23.197,13.466,54.645,21.256,86.281,21.371c0.011,0,0.021,0,0.032,0
	c4.738,0,8.587-3.832,8.604-8.574c0.017-4.752-3.821-8.619-8.574-8.636c-28.712-0.105-57.034-7.046-77.702-19.044
	c-23.281-13.517-54.458-21.598-85.539-22.169c-26.635-0.475-50.514,4.526-68.943,14.256L98.56,17.21H413.44z M381.55,494.79H130.447
	v-48.729H381.55L381.55,494.79L381.55,494.79z"/>
<g>
</g>
<g>
</g>
<g>
</g>
<g>
</g>
<g>
</g>
<g>
</g>
<g>
</g>
<g>
</g>
<g>
</g>
<g>
</g>
<g>
</g>
<g>
</g>
<g>
</g>
<g>
</g>
<g>
</g>
</svg>
