<?xml version="1.0" encoding="iso-8859-1"?>
<!-- Generator: Adobe Illustrator 19.0.0, SVG Export Plug-In . SVG Version: 6.00 Build 0)  -->
<svg version="1.1" id="Layer_1" xmlns="http://www.w3.org/2000/svg" xmlns:xlink="http://www.w3.org/1999/xlink" x="0px" y="0px"
	 viewBox="0 0 512 512" style="enable-background:new 0 0 512 512;" xml:space="preserve">
<path style="fill:#AEADB3;" d="M401.063,132.744v10.25h-31.347v-10.25c0-27.021-21.995-49.016-49.027-49.016
	c-27.031,0-49.016,21.995-49.016,49.016v236.105h-31.347V132.744c0-27.021-21.985-49.016-49.016-49.016
	s-49.027,21.995-49.027,49.016v10.25h-31.347v-10.25c0-44.314,36.059-80.363,80.374-80.363c18.442,0,35.443,6.259,49.016,16.75
	V31.347h-20.376V0h72.098v31.347h-20.375V69.13c13.573-10.491,30.574-16.75,49.016-16.75
	C365.004,52.381,401.063,88.43,401.063,132.744z"/>
<path style="fill:#8B8892;" d="M401.063,132.744v10.25h-31.347v-10.25c0-27.021-21.995-49.016-49.027-49.016
	c-27.031,0-49.016,21.995-49.016,49.016v236.105h-15.339V0h35.715v31.347h-20.375V69.13c13.573-10.491,30.574-16.75,49.016-16.75
	C365.004,52.381,401.063,88.43,401.063,132.744z"/>
<path style="fill:#FFC473;" d="M455.802,196.681c0,0.366-0.01,0.731-0.021,1.097v0.146l-0.282,15.391l-15.391-0.01H401.06v17.732
	h-31.347v-17.732h-54.45l-0.272-15.527c-0.01-0.366-0.021-0.731-0.021-1.097c0-38.828,31.587-70.416,70.416-70.416
	S455.802,157.853,455.802,196.681z"/>
<path style="fill:#FFA91F;" d="M455.802,196.681c0,0.366-0.01,0.731-0.021,1.097v0.146l-0.282,15.391l-15.391-0.01H401.06v17.732
	h-15.673V126.265C424.215,126.265,455.802,157.853,455.802,196.681z"/>
<path style="fill:#FFC473;" d="M197.029,196.681c0,0.366-0.01,0.731-0.021,1.097v0.146l-0.282,15.391l-15.391-0.01h-39.048v17.732
	H110.94v-17.732H56.49l-0.272-15.527c-0.01-0.366-0.021-0.731-0.021-1.097c0-38.828,31.587-70.416,70.416-70.416
	S197.029,157.853,197.029,196.681z"/>
<path style="fill:#FFA91F;" d="M197.029,196.681c0,0.366-0.01,0.731-0.021,1.097v0.146l-0.282,15.391l-15.391-0.01h-39.048v17.732
	h-15.673V126.265C165.442,126.265,197.029,157.853,197.029,196.681z"/>
<polygon style="fill:#0082D2;" points="316.343,480.653 316.343,512 195.657,512 195.657,480.653 203.17,480.653 215.186,361.733 
	296.814,361.733 308.83,480.653 "/>
<polygon style="fill:#005C94;" points="316.343,480.653 316.343,512 256.334,512 256.334,361.733 296.814,361.733 308.83,480.653 
	"/>
<g>
</g>
<g>
</g>
<g>
</g>
<g>
</g>
<g>
</g>
<g>
</g>
<g>
</g>
<g>
</g>
<g>
</g>
<g>
</g>
<g>
</g>
<g>
</g>
<g>
</g>
<g>
</g>
<g>
</g>
</svg>
